# xmcd
#
# Track frame offsets:
#	150
#	18910
#	37960
#	56760
#	75960
#	91500
#	105375
#	124370
#	144750
#	168280
#	186920
#	205095
#	219975
#	243485
#	263080
#	277660
#	288360
#	299160
#
# Disc length: 4226 seconds
# Revision: 0
# Processed by: cddbd v1.5.2PL0 Copyright (c) Steve Scherf et al.
# Submitted via: dBpowerAMP V12.0
#
DISCID=f2108012
DTITLE=Unknown Artist - Romantic SAX
DYEAR=1900
DGENRE=Instrumental
TTITLE0=Lily Was Here
TTITLE1=Woman In Love
TTITLE2=Hello
TTITLE3=Where Do Broken Hearts Go?
TTITLE4=Nothing's Gonna Ghange My Love For You
TTITLE5=Stuck On You
TTITLE6=Too Much Heaven
TTITLE7=Heart Breaker
TTITLE8=Song Bird
TTITLE9=Dont't Wanna Loose You Now
TTITLE10=These Dreams
TTITLE11=Missing You
TTITLE12=Going Home - Theme A
TTITLE13=You're In My Heart
TTITLE14=Michelle
TTITLE15=Strangers In The night
TTITLE16=Don't Make My brown Eyes Blue
TTITLE17=Private Dancer
EXTD=
EXTT0=
EXTT1=
EXTT2=
EXTT3=
EXTT4=
EXTT5=
EXTT6=
EXTT7=
EXTT8=
EXTT9=
EXTT10=
EXTT11=
EXTT12=
EXTT13=
EXTT14=
EXTT15=
EXTT16=
EXTT17=
PLAYORDER=
